<?xml version="1.0" standalone="no"?>
<!DOCTYPE svg PUBLIC "-//W3C//DTD SVG 20010904//EN"
 "http://www.w3.org/TR/2001/REC-SVG-20010904/DTD/svg10.dtd">
<svg version="1.0" xmlns="http://www.w3.org/2000/svg"
 width="728.000000pt" height="508.000000pt" viewBox="0 0 728.000000 508.000000"
 preserveAspectRatio="xMidYMid meet">

<g transform="translate(0.000000,508.000000) scale(0.100000,-0.100000)"
fill="#000000" stroke="none">
<path d="M1294 4266 c-135 -42 -226 -184 -209 -326 13 -106 72 -191 167 -242
l43 -23 2345 0 2345 0 43 23 c57 30 120 96 146 152 29 65 28 188 -3 250 -26
52 -63 96 -108 128 -77 55 60 52 -2428 51 -1856 0 -2308 -3 -2341 -13z"/>
<path d="M1321 2839 c-88 -17 -173 -86 -213 -174 -17 -38 -23 -67 -22 -125 1
-129 55 -216 174 -277 l55 -28 2294 -3 c2496 -2 2359 -5 2449 52 156 98 186
332 59 464 -44 46 -102 78 -165 91 -65 13 -4562 14 -4631 0z"/>
<path d="M1287 1396 c-131 -47 -221 -191 -203 -324 14 -104 79 -194 173 -242
l48 -25 2335 0 2335 0 47 24 c112 57 173 157 173 281 -1 122 -58 215 -167 269
l-61 31 -2321 0 c-1928 -1 -2327 -3 -2359 -14z"/>
</g>
</svg>
