<?xml version="1.0" standalone="no"?>
<!DOCTYPE svg PUBLIC "-//W3C//DTD SVG 20010904//EN"
 "http://www.w3.org/TR/2001/REC-SVG-20010904/DTD/svg10.dtd">
<svg version="1.0" xmlns="http://www.w3.org/2000/svg"
 width="640.000000pt" height="640.000000pt" viewBox="0 0 640.000000 640.000000"
 preserveAspectRatio="xMidYMid meet">

<g transform="translate(0.000000,640.000000) scale(0.100000,-0.100000)"
fill="#000000" stroke="none">
<path d="M2958 5596 c-68 -25 -130 -68 -161 -112 -58 -81 -66 -121 -67 -307 0
-125 -3 -168 -12 -171 -223 -61 -358 -120 -472 -207 -272 -207 -431 -507 -520
-979 -35 -183 -62 -443 -86 -825 -32 -498 -58 -707 -98 -799 -10 -22 -54 -97
-97 -166 -176 -281 -205 -382 -144 -501 25 -50 85 -93 168 -121 64 -22 84 -23
570 -28 l504 -5 14 -60 c30 -131 129 -280 243 -366 121 -91 245 -132 400 -132
322 -1 583 213 654 536 l6 27 471 0 c389 0 483 3 546 16 208 43 289 158 237
335 -21 71 -50 126 -141 271 -96 154 -130 227 -148 319 -21 111 -43 334 -60
614 -49 794 -109 1122 -260 1430 -101 204 -221 348 -380 455 -126 85 -222 125
-442 186 -10 3 -13 46 -13 173 0 205 -13 252 -91 332 -85 87 -109 94 -364 96
-164 2 -229 -1 -257 -11z m443 -201 c58 -31 69 -64 69 -215 l0 -135 -270 0
-270 0 0 128 c0 147 11 186 62 217 30 18 50 20 206 20 137 0 179 -3 203 -15z
m141 -574 c583 -100 879 -497 973 -1301 24 -209 24 -206 45 -540 47 -733 62
-802 238 -1078 82 -129 117 -194 126 -239 6 -26 3 -34 -16 -47 -57 -36 -108
-37 -1743 -34 -1679 3 -1661 3 -1684 46 -16 30 16 103 109 252 50 80 107 177
126 217 61 125 90 330 124 858 31 488 46 630 95 865 122 595 432 926 940 1004
146 23 527 20 667 -3z m103 -3468 c-14 -56 -60 -139 -103 -185 -93 -99 -204
-148 -338 -148 -208 0 -370 115 -439 311 -8 20 -11 40 -8 43 4 3 206 6 451 6
l444 0 -7 -27z"/>
</g>
</svg>
